<svg version="1.1" xmlns="http://www.w3.org/2000/svg" viewBox="0 0 3668.642857142856 2131.859603424327" width="3668.642857142856" height="2131.859603424327">
  <!-- svg-source:excalidraw -->
  
  <defs>
    <style class="style-fonts">
      @font-face {
        font-family: "Virgil";
        src: url("https://excalidraw.com/Virgil.woff2");
      }
      @font-face {
        font-family: "Cascadia";
        src: url("https://excalidraw.com/Cascadia.woff2");
      }
      @font-face {
        font-family: "Assistant";
        src: url("https://excalidraw.com/Assistant-Regular.woff2");
      }
    </style>
    
  </defs>
  <rect x="0" y="0" width="3668.642857142856" height="2131.859603424327" fill="#ffffff"></rect><g stroke-linecap="round" transform="translate(1873.6428571428557 376.3916632249902) rotate(0 892.5 395)"><path d="M32 0 C577.04 11.28, 1120.41 9.7, 1753 0 C1774.6 -3.42, 1785.83 13.92, 1785 32 C1789.38 304.5, 1789.26 578.15, 1785 758 C1781.9 776.09, 1773.84 792.13, 1753 790 C1239.78 786.27, 724.75 784.39, 32 790 C10.83 790.02, -1.14 780.6, 0 758 C5.22 548.42, 2.62 341.38, 0 32 C3.31 7.52, 8.69 1.99, 32 0" stroke="none" stroke-width="0" fill="#ffc9c9"></path><path d="M32 0 C720.48 -0.09, 1408.9 -1.37, 1753 0 M32 0 C502.77 2.46, 972.91 2.39, 1753 0 M1753 0 C1775.9 -1.23, 1784.62 12.4, 1785 32 M1753 0 C1772.21 -1.75, 1785.73 12.93, 1785 32 M1785 32 C1786.47 203.14, 1787.19 373.01, 1785 758 M1785 32 C1785.04 227.7, 1785.5 424.35, 1785 758 M1785 758 C1786.56 778.96, 1774.41 790.79, 1753 790 M1785 758 C1783.97 781.04, 1772.31 789.91, 1753 790 M1753 790 C1155.36 787.91, 558.02 788.11, 32 790 M1753 790 C1356.35 794.5, 960.1 793.87, 32 790 M32 790 C10.08 789.21, -1.42 777.51, 0 758 M32 790 C11.33 790.68, -0.33 779.76, 0 758 M0 758 C0.25 545.79, -0.51 335.56, 0 32 M0 758 C-0.05 585.36, 0.36 413.19, 0 32 M0 32 C-1.74 9.6, 9.11 -0.7, 32 0 M0 32 C0.31 8.37, 12.16 1.29, 32 0" stroke="#e03131" stroke-width="2" fill="none"></path></g><g stroke-linecap="round" transform="translate(1132.5267228702871 1295.7268457039017) rotate(0 248.75 129.99999999999994)"><path d="M7.86 8.16 C7.86 8.16, 7.86 8.16, 7.86 8.16 M7.86 8.16 C7.86 8.16, 7.86 8.16, 7.86 8.16 M1.43 27.75 C9.24 16.53, 18.2 6.09, 24.4 1.33 M1.43 27.75 C7.65 21.44, 12.38 14.68, 24.4 1.33 M0.91 40.54 C13 26.7, 24.97 12.49, 36.34 -0.21 M0.91 40.54 C15.22 24.96, 28.8 10.1, 36.34 -0.21 M1.04 52.58 C11.96 41.45, 22.3 27.86, 46.97 -0.25 M1.04 52.58 C15.93 34.83, 31.13 17.64, 46.97 -0.25 M1.18 64.62 C17.24 46.22, 33.79 27.27, 57.6 -0.28 M1.18 64.62 C18.44 44.34, 35.76 23.38, 57.6 -0.28 M1.31 76.67 C22.85 53.04, 40.26 31.17, 67.57 0.44 M1.31 76.67 C27.22 47.37, 51.49 19.24, 67.57 0.44 M0.79 89.46 C22.2 68.01, 39.83 43.01, 78.2 0.41 M0.79 89.46 C23.28 63.79, 44.46 38.99, 78.2 0.41 M0.92 101.5 C34.66 66.53, 66.43 28.83, 88.83 0.37 M0.92 101.5 C20.23 81.71, 37.63 60.05, 88.83 0.37 M1.05 113.54 C21.27 90.87, 43.88 65.48, 99.46 0.34 M1.05 113.54 C39.11 69.67, 76.92 25.87, 99.46 0.34 M1.19 125.58 C28.1 94, 57.37 57.89, 110.09 0.3 M1.19 125.58 C36.79 86.86, 70.41 46.92, 110.09 0.3 M0.66 138.38 C35.99 93.63, 74.91 53.61, 120.72 0.27 M0.66 138.38 C36.87 96.22, 74.52 53.01, 120.72 0.27 M0.8 150.42 C36.57 107.1, 74.29 64.47, 131.35 0.23 M0.8 150.42 C47.28 96.79, 92.67 44.29, 131.35 0.23 M0.93 162.46 C53.65 100.78, 109.46 39.08, 141.98 0.2 M0.93 162.46 C35.17 121.59, 70.74 80.24, 141.98 0.2 M1.06 174.5 C32.87 135.52, 63.92 98.56, 152.61 0.16 M1.06 174.5 C38.64 132.8, 74.95 89.5, 152.61 0.16 M0.54 187.3 C65.38 112.93, 126.88 42.08, 163.24 0.13 M0.54 187.3 C35.22 146.54, 72.08 105.05, 163.24 0.13 M0.67 199.34 C41.57 151.5, 83.43 101.54, 173.87 0.09 M0.67 199.34 C46.82 144.9, 93.88 90.28, 173.87 0.09 M0.81 211.38 C74.16 128.21, 145.37 43.16, 184.5 0.06 M0.81 211.38 C64.93 139.48, 126.76 67.69, 184.5 0.06 M0.94 223.42 C58.6 153.47, 119.19 87.22, 195.13 0.03 M0.94 223.42 C72.37 139.69, 144.17 58.4, 195.13 0.03 M1.73 234.71 C42.43 188.23, 85.62 139.11, 205.76 -0.01 M1.73 234.71 C72.17 152.95, 141.47 72.7, 205.76 -0.01 M3.83 244.48 C69.87 170.12, 135.49 91.93, 216.39 -0.04 M3.83 244.48 C54.6 186.96, 105.49 128.68, 216.39 -0.04 M7.9 252 C74.18 174.51, 140.86 100.45, 227.02 -0.08 M7.9 252 C67.54 184.13, 125.55 115.95, 227.02 -0.08 M14.59 256.49 C83.91 173.41, 157.32 91.93, 237.65 -0.11 M14.59 256.49 C67.1 196.18, 120.09 135.11, 237.65 -0.11 M23.26 258.72 C93.37 176.45, 164.93 96.79, 248.28 -0.15 M23.26 258.72 C108.25 160.86, 192.27 62.97, 248.28 -0.15 M32.57 260.19 C121.91 159.07, 208.03 58.39, 258.91 -0.18 M32.57 260.19 C97.4 183.63, 163.7 108.25, 258.91 -0.18 M43.2 260.16 C122.23 168.21, 200.27 77.64, 269.54 -0.22 M43.2 260.16 C93.76 202.37, 144.48 143.13, 269.54 -0.22 M53.83 260.12 C118.76 187.16, 183.35 112.98, 280.17 -0.25 M53.83 260.12 C139.38 158.45, 226.94 58.83, 280.17 -0.25 M64.46 260.09 C126.94 187.96, 190.03 117.93, 290.8 -0.28 M64.46 260.09 C155.6 157.25, 245.38 52.93, 290.8 -0.28 M75.09 260.06 C166.76 156.92, 254.5 53.66, 300.78 0.44 M75.09 260.06 C132.56 192.23, 192.68 124.33, 300.78 0.44 M85.72 260.02 C134.79 201.9, 185.04 144.11, 311.41 0.4 M85.72 260.02 C171.33 159.62, 257.19 61.18, 311.41 0.4 M95.7 260.74 C146.52 200.81, 196.97 144.23, 322.04 0.37 M95.7 260.74 C169.2 176.34, 243.05 91.6, 322.04 0.37 M106.33 260.71 C173.01 184.48, 236.71 109.9, 332.67 0.33 M106.33 260.71 C166.24 191.63, 226.96 121.41, 332.67 0.33 M116.96 260.67 C182.15 187.75, 247.85 111.58, 343.3 0.3 M116.96 260.67 C195.26 171.01, 271.85 82.98, 343.3 0.3 M127.59 260.64 C179.93 201.27, 231.3 142.69, 353.93 0.26 M127.59 260.64 C190.13 189.44, 252.21 119.62, 353.93 0.26 M138.22 260.6 C187.01 204.51, 234.63 150.29, 364.56 0.23 M138.22 260.6 C212.41 173.71, 289.32 87.02, 364.56 0.23 M148.85 260.57 C231.96 163.5, 314.11 67.32, 375.19 0.19 M148.85 260.57 C197.02 205.69, 243.28 152.18, 375.19 0.19 M159.48 260.53 C213.68 196.36, 268.68 134.8, 385.82 0.16 M159.48 260.53 C225.61 181.53, 293.07 102.56, 385.82 0.16 M170.11 260.5 C235.73 183.57, 302.57 106.25, 396.45 0.12 M170.11 260.5 C216.21 205.27, 264.86 150.01, 396.45 0.12 M180.74 260.47 C256.04 173.68, 330.74 88.94, 407.08 0.09 M180.74 260.47 C244.72 187.32, 308.25 113.96, 407.08 0.09 M191.37 260.43 C273.1 166.25, 354.98 71.99, 417.71 0.06 M191.37 260.43 C241.65 203.49, 292.61 145.31, 417.71 0.06 M202 260.4 C258.86 194.65, 313.59 129.51, 428.34 0.02 M202 260.4 C266.04 186.76, 330.75 110.98, 428.34 0.02 M212.63 260.36 C296.75 160.38, 385.09 60.09, 438.97 -0.01 M212.63 260.36 C278.48 184.76, 346.07 108.18, 438.97 -0.01 M223.26 260.33 C288.49 185.48, 353.91 109.44, 449.6 -0.05 M223.26 260.33 C311.33 157.72, 400.62 55.32, 449.6 -0.05 M233.89 260.29 C309.79 171.96, 387.02 85.1, 460.23 -0.08 M233.89 260.29 C299.38 183.87, 366.53 108.69, 460.23 -0.08 M244.52 260.26 C322.72 170.25, 402.36 79.61, 470.2 0.64 M244.52 260.26 C295.99 200.45, 347.76 141.93, 470.2 0.64 M255.15 260.22 C317.05 189.4, 378.9 116.92, 478.87 2.87 M255.15 260.22 C341.14 160.76, 428.5 61.26, 478.87 2.87 M265.78 260.19 C317.99 199.92, 369.12 139.87, 486.87 5.85 M265.78 260.19 C326.6 189.76, 389.52 118.81, 486.87 5.85 M276.41 260.15 C361.15 163.34, 448 64.21, 492.25 11.86 M276.41 260.15 C354.92 167.98, 433.91 76.93, 492.25 11.86 M287.04 260.12 C365.59 168.94, 443.88 79.08, 496.32 19.37 M287.04 260.12 C329.67 208.98, 374.4 158.29, 496.32 19.37 M297.67 260.09 C370.72 176.45, 443.8 90.59, 497.77 29.9 M297.67 260.09 C362 185.28, 426.94 109.82, 497.77 29.9 M308.3 260.05 C369.86 189.6, 429.06 119.71, 497.9 41.94 M308.3 260.05 C371.7 187.67, 434.02 115.39, 497.9 41.94 M318.93 260.02 C362.64 209.89, 406.81 158.62, 498.03 53.98 M318.93 260.02 C386.88 183.77, 453.41 107.21, 498.03 53.98 M328.9 260.74 C365.03 216.61, 403.38 176.7, 498.17 66.02 M328.9 260.74 C380.23 199.73, 433.82 139.55, 498.17 66.02 M339.53 260.7 C387.97 204.5, 434.14 150.52, 498.3 78.06 M339.53 260.7 C390.22 200.96, 442.45 140.63, 498.3 78.06 M350.16 260.67 C401.55 204.31, 449.71 145.01, 498.43 90.1 M350.16 260.67 C394.02 209.87, 438.39 158.22, 498.43 90.1 M360.79 260.63 C392.41 223.83, 421.5 186.93, 497.91 102.9 M360.79 260.63 C391.72 226.62, 421.66 192.94, 497.91 102.9 M371.42 260.6 C418.17 205.8, 461.5 152.2, 498.04 114.94 M371.42 260.6 C419.75 204.71, 468.35 149.61, 498.04 114.94 M382.05 260.56 C423.04 215.91, 460.78 173.08, 498.18 126.98 M382.05 260.56 C425.36 208.82, 470.72 159.13, 498.18 126.98 M392.68 260.53 C424.71 226.08, 456.8 187.16, 498.31 139.02 M392.68 260.53 C425.94 221.47, 460.31 183.06, 498.31 139.02 M403.32 260.5 C434.44 224.13, 463.01 189.47, 498.44 151.06 M403.32 260.5 C438.26 219.45, 475.75 177.71, 498.44 151.06 M413.95 260.46 C442.92 227.11, 474.25 193.08, 497.92 163.86 M413.95 260.46 C433.3 237.07, 452.84 215.57, 497.92 163.86 M424.58 260.43 C452.52 231.45, 475.1 201.03, 498.05 175.9 M424.58 260.43 C443.29 239.08, 461.68 217.87, 498.05 175.9 M435.21 260.39 C449.58 244.69, 465.1 225.21, 498.19 187.94 M435.21 260.39 C454.91 238.58, 474.78 215.36, 498.19 187.94 M445.84 260.36 C461.29 241.78, 478.4 221.48, 498.32 199.98 M445.84 260.36 C461.63 241.67, 477.73 223.11, 498.32 199.98 M456.47 260.32 C470.21 244.3, 482.4 228.17, 497.8 212.78 M456.47 260.32 C468.03 247.21, 478.3 234.74, 497.8 212.78 M467.1 260.29 C474.34 252.87, 480.76 244.26, 497.93 224.82 M467.1 260.29 C476.97 249.83, 485.89 239.26, 497.93 224.82 M479.69 257.99 C485.35 253.6, 488.38 249.04, 496.75 238.37 M479.69 257.99 C484.9 252.6, 491.14 245.27, 496.75 238.37" stroke="#ffec99" stroke-width="1" fill="none"></path><path d="M32 0 C188.67 0.27, 345.04 -0.28, 465.5 0 M32 0 C198.2 -1.46, 364.93 -1.3, 465.5 0 M465.5 0 C488.55 1.58, 497.97 10.13, 497.5 32 M465.5 0 C488.57 -2.13, 497.32 9.65, 497.5 32 M497.5 32 C495.72 97.09, 496.02 163.82, 497.5 228 M497.5 32 C498.87 71.8, 498.95 110.23, 497.5 228 M497.5 228 C499.28 250.01, 486.47 259.82, 465.5 260 M497.5 228 C495.55 249.37, 484.82 262.3, 465.5 260 M465.5 260 C351.92 257.73, 237 257.6, 32 260 M465.5 260 C317.01 262.19, 169.34 262.34, 32 260 M32 260 C10.58 261.55, 1 248.97, 0 228 M32 260 C11.61 259.85, 0.43 249.43, 0 228 M0 228 C0.86 177.83, -0.37 127.34, 0 32 M0 228 C0.29 167.63, -0.92 108.88, 0 32 M0 32 C-1.99 9.86, 9.01 -0.58, 32 0 M0 32 C-1.82 9.53, 11.62 0.98, 32 0" stroke="#1e1e1e" stroke-width="2" fill="none"></path></g><g transform="translate(1322.9027452091543 1403.2268457039015) rotate(0 58.37397766113281 22.5)"><text x="58.37397766113281" y="31.536" font-family="Virgil, Segoe UI Emoji" font-size="36px" fill="#1e1e1e" text-anchor="middle" style="white-space: pre;" direction="ltr" dominant-baseline="alphabetic">Screen 2.8” ILI9341 LCD (No touch)</text></g><g stroke-linecap="round" transform="translate(672.5267228702871 1725.7268457039013) rotate(0 212.5 131.25)"><path d="M7.86 8.16 C7.86 8.16, 7.86 8.16, 7.86 8.16 M7.86 8.16 C7.86 8.16, 7.86 8.16, 7.86 8.16 M1.43 27.75 C9.72 16.4, 17.58 5.16, 24.4 1.33 M1.43 27.75 C5.98 22.55, 12.03 17.34, 24.4 1.33 M0.91 40.54 C12.7 24.3, 29.86 6.91, 36.34 -0.21 M0.91 40.54 C11.44 28.06, 22.65 16.45, 36.34 -0.21 M1.04 52.58 C13.34 40.32, 26.82 26, 46.97 -0.25 M1.04 52.58 C13.48 40.15, 25.06 25.9, 46.97 -0.25 M1.18 64.62 C13.26 50.01, 23.99 37.33, 57.6 -0.28 M1.18 64.62 C20.07 43.59, 38.71 23.21, 57.6 -0.28 M1.31 76.67 C22.18 51.27, 46.57 26.91, 67.57 0.44 M1.31 76.67 C16.9 59.8, 30.61 43.94, 67.57 0.44 M0.79 89.46 C23.13 65.4, 42.2 41.25, 78.2 0.41 M0.79 89.46 C30.89 55.78, 61.14 19.63, 78.2 0.41 M0.92 101.5 C25.46 69.96, 51.45 43.31, 88.83 0.37 M0.92 101.5 C18.01 81.78, 35.57 60.57, 88.83 0.37 M1.05 113.54 C25.9 83.73, 52.37 52.59, 99.46 0.34 M1.05 113.54 C36.45 72.45, 70.32 34.22, 99.46 0.34 M1.19 125.58 C42.48 77.56, 84.31 28.54, 110.09 0.3 M1.19 125.58 C24.55 98.94, 48.4 72.75, 110.09 0.3 M0.66 138.38 C43.62 86.75, 88.08 36.79, 120.72 0.27 M0.66 138.38 C35.08 98.06, 70.25 58.12, 120.72 0.27 M0.8 150.42 C27.54 118.72, 55.36 87.58, 131.35 0.23 M0.8 150.42 C50.91 91.85, 100.31 34, 131.35 0.23 M0.93 162.46 C39.95 117.03, 79.46 70.08, 141.98 0.2 M0.93 162.46 C31.16 127.57, 60.07 93.05, 141.98 0.2 M1.06 174.5 C51.81 113.72, 103.27 53.6, 152.61 0.16 M1.06 174.5 C54.75 115.92, 105.51 57.4, 152.61 0.16 M0.54 187.3 C38.25 143.5, 78.15 98.46, 163.24 0.13 M0.54 187.3 C50.68 131.33, 98.04 76.75, 163.24 0.13 M0.67 199.34 C59.72 134.55, 114.46 67.73, 173.87 0.09 M0.67 199.34 C42.29 152.03, 83.99 104.54, 173.87 0.09 M0.81 211.38 C68.27 135.91, 131.35 62.5, 184.5 0.06 M0.81 211.38 C49.25 154.68, 98 99.75, 184.5 0.06 M0.94 223.42 C50.94 167, 102.3 108.99, 195.13 0.03 M0.94 223.42 C60.7 155.16, 121.04 85.46, 195.13 0.03 M1.07 235.46 C58.46 169.43, 118.52 100.14, 205.76 -0.01 M1.07 235.46 C50.39 178.07, 98.61 122.4, 205.76 -0.01 M2.52 245.99 C47.71 194.37, 91.81 144.77, 216.39 -0.04 M2.52 245.99 C78.86 158.03, 154.44 72.68, 216.39 -0.04 M7.24 252.75 C90.05 155.37, 174.1 61.43, 227.02 -0.08 M7.24 252.75 C63.91 186.56, 119.13 121.69, 227.02 -0.08 M12.63 258.75 C101.46 158.62, 187.44 59.21, 237.65 -0.11 M12.63 258.75 C61.1 205.79, 107.29 151.92, 237.65 -0.11 M21.29 260.98 C96.35 176.89, 171.11 90.17, 248.28 -0.15 M21.29 260.98 C101.8 167.5, 182.01 73.31, 248.28 -0.15 M29.95 263.21 C77.46 206.96, 128.91 151.33, 258.91 -0.18 M29.95 263.21 C98.43 184.9, 165.98 106.57, 258.91 -0.18 M40.58 263.18 C105.32 187.38, 174.62 109.54, 269.54 -0.22 M40.58 263.18 C111.15 183.04, 179.79 102.73, 269.54 -0.22 M51.21 263.14 C101.6 203.95, 153.77 144.23, 280.17 -0.25 M51.21 263.14 C116.16 185.87, 182.9 109.97, 280.17 -0.25 M61.84 263.11 C108.22 206.83, 154.92 153.69, 290.8 -0.28 M61.84 263.11 C119.45 197.32, 177.23 130.31, 290.8 -0.28 M72.47 263.07 C155.33 168.07, 237.52 73.31, 300.78 0.44 M72.47 263.07 C123.61 205.58, 174.72 148.34, 300.78 0.44 M83.1 263.04 C141.54 199.17, 198.03 131.89, 311.41 0.4 M83.1 263.04 C148.1 186.14, 215.2 110.23, 311.41 0.4 M93.73 263.01 C157.06 189.45, 221.79 115.98, 322.04 0.37 M93.73 263.01 C183.6 162, 271.8 59.88, 322.04 0.37 M104.36 262.97 C190.65 162.29, 280.01 59.52, 332.67 0.33 M104.36 262.97 C173.67 183.44, 242.02 103.78, 332.67 0.33 M114.99 262.94 C173.38 195.77, 231.55 128.37, 343.3 0.3 M114.99 262.94 C170.59 197.74, 226.31 133.95, 343.3 0.3 M125.62 262.9 C179.44 201.78, 233.84 139.86, 353.93 0.26 M125.62 262.9 C191.85 186.62, 257.54 110.05, 353.93 0.26 M136.25 262.87 C201.53 189.23, 268.42 112.8, 364.56 0.23 M136.25 262.87 C208.58 181.52, 279.41 99.69, 364.56 0.23 M146.88 262.83 C230.84 166.41, 315.02 70.52, 375.19 0.19 M146.88 262.83 C207.08 194.13, 266.16 126.47, 375.19 0.19 M157.51 262.8 C241.76 165.5, 325.19 68.56, 385.82 0.16 M157.51 262.8 C218.72 191.11, 280.17 121.17, 385.82 0.16 M168.14 262.76 C223.64 199.81, 278.72 136.67, 395.79 0.88 M168.14 262.76 C244.5 174.53, 320.32 86.74, 395.79 0.88 M178.77 262.73 C227.84 205.52, 276.2 149.9, 405.11 2.35 M178.77 262.73 C235.69 198.09, 292.97 132.24, 405.11 2.35 M188.75 263.45 C247.58 195.4, 308.76 125.07, 413.12 5.34 M188.75 263.45 C243.94 196.62, 300.58 132.72, 413.12 5.34 M199.38 263.42 C278.96 172.92, 358.51 83.54, 419.15 10.59 M199.38 263.42 C277.43 172.05, 357.7 80.47, 419.15 10.59 M210.01 263.38 C275.55 184.24, 343.63 107.32, 423.22 18.1 M210.01 263.38 C260.87 202.02, 314.4 139.85, 423.22 18.1 M220.64 263.35 C271.39 206.04, 319.92 148.39, 424.67 28.63 M220.64 263.35 C292.37 178.24, 366.31 93.97, 424.67 28.63 M231.27 263.31 C277.06 212.55, 321.72 161.89, 425.46 39.92 M231.27 263.31 C305.38 177.65, 379.86 91.8, 425.46 39.92 M241.9 263.28 C300.84 190.59, 363.46 120.79, 425.59 51.96 M241.9 263.28 C310.91 184.6, 379.41 105.13, 425.59 51.96 M252.53 263.24 C305.31 201.11, 358.81 138.91, 425.73 64 M252.53 263.24 C291.39 219.58, 328.19 176.16, 425.73 64 M263.16 263.21 C326 191.4, 391.45 116.17, 425.2 76.79 M263.16 263.21 C325.24 192.22, 386.6 121.61, 425.2 76.79 M273.79 263.17 C307.37 225.64, 342.44 187.92, 425.34 88.84 M273.79 263.17 C323.16 206.34, 373 149.92, 425.34 88.84 M284.42 263.14 C314.45 225.79, 348.14 190.62, 425.47 100.88 M284.42 263.14 C329.05 213.14, 373.95 160.07, 425.47 100.88 M295.05 263.1 C333.63 218.44, 372.19 172.17, 425.6 112.92 M295.05 263.1 C320.68 232.97, 347.47 201.66, 425.6 112.92 M305.68 263.07 C341.17 221.1, 379.03 181.94, 425.73 124.96 M305.68 263.07 C330.02 234.02, 355.63 206.17, 425.73 124.96 M316.31 263.04 C342.46 233.8, 368.83 203.01, 425.21 137.75 M316.31 263.04 C354.52 219.2, 391.2 175.81, 425.21 137.75 M326.94 263 C360.83 222.62, 396.64 181.24, 425.35 149.79 M326.94 263 C346.98 239.92, 366.47 217.43, 425.35 149.79 M337.57 262.97 C354.44 243.99, 372.7 224.11, 425.48 161.84 M337.57 262.97 C368.75 227.24, 399.29 190.23, 425.48 161.84 M348.2 262.93 C364.22 243.06, 381.66 223.7, 425.61 173.88 M348.2 262.93 C372.85 233.47, 398.23 205, 425.61 173.88 M358.83 262.9 C378.51 241.13, 400.58 217.01, 425.09 186.67 M358.83 262.9 C374.35 243.84, 393.09 224.8, 425.09 186.67 M369.46 262.86 C387.15 240.13, 408.54 221.12, 425.22 198.71 M369.46 262.86 C391.1 237.48, 412.46 213.64, 425.22 198.71 M380.09 262.83 C395.24 243.82, 408.92 225.45, 425.35 210.75 M380.09 262.83 C397 242.25, 415.32 223.27, 425.35 210.75 M390.72 262.79 C399.45 253.65, 407.06 244.24, 425.49 222.79 M390.72 262.79 C398.96 254.23, 404.9 245.98, 425.49 222.79 M402.66 261.25 C410.05 256.14, 412.91 249.61, 424.96 235.59 M402.66 261.25 C409.03 255.2, 414.65 246.78, 424.96 235.59" stroke="#ffec99" stroke-width="1" fill="none"></path><path d="M32 0 C112.41 3.2, 190.95 3.14, 393 0 M32 0 C130.08 -0.52, 229.43 -1.27, 393 0 M393 0 C413.39 0.81, 423.56 12.06, 425 32 M393 0 C416.1 -0.56, 425.52 12.48, 425 32 M425 32 C427.06 83.25, 426.38 135.31, 425 230.5 M425 32 C423.87 91.34, 424.47 149.26, 425 230.5 M425 230.5 C423.29 252.29, 414.9 260.93, 393 262.5 M425 230.5 C426.92 251.28, 415.8 262, 393 262.5 M393 262.5 C292.09 261.49, 189.8 262.36, 32 262.5 M393 262.5 C314.97 261.42, 237.7 261.01, 32 262.5 M32 262.5 C12.57 260.84, 0.37 253.31, 0 230.5 M32 262.5 C10.26 261.21, 1.95 253.85, 0 230.5 M0 230.5 C-2.19 168.45, -0.23 107.94, 0 32 M0 230.5 C-0.52 169, -1.89 109.49, 0 32 M0 32 C0.57 12.46, 10.92 -0.34, 32 0 M0 32 C1.24 10.44, 11.08 0.88, 32 0" stroke="#1e1e1e" stroke-width="2" fill="none"></path></g><g transform="translate(817.0047502140371 1834.4768457039013) rotate(0 68.02197265625 22.5)"><text x="68.02197265625" y="31.536" font-family="Virgil, Segoe UI Emoji" font-size="36px" fill="#1e1e1e" text-anchor="middle" style="white-space: pre;" direction="ltr" dominant-baseline="alphabetic">2W 8Ohm Speaker with PAM8302A Audio Amplifier</text></g><g stroke-linecap="round"><g transform="translate(1632.5267228702871 1311.535786178572) rotate(0 45 -1.157274505814513)"><path d="M0.97 -1 C16.13 -1.28, 75.76 -2.48, 90.7 -2.63 M0.01 1.1 C15.1 1.07, 75.1 -0.41, 90.12 -1.26" stroke="#1e1e1e" stroke-width="2" fill="none"></path></g><g transform="translate(1632.5267228702871 1311.535786178572) rotate(0 45 -1.157274505814513)"><path d="M66.96 8.17 C71.82 6.52, 79.4 3.67, 90.12 -1.26 M66.96 8.17 C75.42 4.19, 81.71 0.8, 90.12 -1.26" stroke="#1e1e1e" stroke-width="2" fill="none"></path></g><g transform="translate(1632.5267228702871 1311.535786178572) rotate(0 45 -1.157274505814513)"><path d="M66.32 -8.92 C71.23 -5.81, 78.98 -3.9, 90.12 -1.26 M66.32 -8.92 C75.05 -7.18, 81.57 -4.85, 90.12 -1.26" stroke="#1e1e1e" stroke-width="2" fill="none"></path></g></g><mask></mask><g transform="translate(1740.0267228702871 1215.7268457039013) rotate(0 331.1998596191406 90)"><text x="0" y="31.536" font-family="Virgil, Segoe UI Emoji" font-size="36px" fill="#1e1e1e" text-anchor="start" style="white-space: pre;" direction="ltr" dominant-baseline="alphabetic">Purpose:</text><text x="0" y="76.536" font-family="Virgil, Segoe UI Emoji" font-size="36px" fill="#1e1e1e" text-anchor="start" style="white-space: pre;" direction="ltr" dominant-baseline="alphabetic">Facial Expressions</text><text x="0" y="121.536" font-family="Virgil, Segoe UI Emoji" font-size="36px" fill="#1e1e1e" text-anchor="start" style="white-space: pre;" direction="ltr" dominant-baseline="alphabetic">Friendly Animations i.e Waiving Hands</text><text x="0" y="166.536" font-family="Virgil, Segoe UI Emoji" font-size="36px" fill="#1e1e1e" text-anchor="start" style="white-space: pre;" direction="ltr" dominant-baseline="alphabetic">Transcription of Generated Response</text></g><g stroke-linecap="round"><g transform="translate(1095.0267228702871 1765.7268457039013) rotate(0 60 0.20919303435169923)"><path d="M0.51 0.77 C20.64 0.7, 100.67 0.36, 120.66 0.22 M-0.68 0.13 C19.37 0.19, 99.96 1.51, 120.06 1.65" stroke="#1e1e1e" stroke-width="2" fill="none"></path></g><g transform="translate(1095.0267228702871 1765.7268457039013) rotate(0 60 0.20919303435169923)"><path d="M96.46 9.91 C104.5 8.53, 109.67 5.8, 120.06 1.65 M96.46 9.91 C101.79 9, 108.59 5.72, 120.06 1.65" stroke="#1e1e1e" stroke-width="2" fill="none"></path></g><g transform="translate(1095.0267228702871 1765.7268457039013) rotate(0 60 0.20919303435169923)"><path d="M96.67 -7.19 C104.73 -3.64, 109.85 -1.46, 120.06 1.65 M96.67 -7.19 C101.97 -3.71, 108.72 -2.6, 120.06 1.65" stroke="#1e1e1e" stroke-width="2" fill="none"></path></g></g><mask></mask><g transform="translate(1232.5267228702871 1750.7268457039013) rotate(0 332.9278564453125 67.5)"><text x="0" y="31.536" font-family="Virgil, Segoe UI Emoji" font-size="36px" fill="#1e1e1e" text-anchor="start" style="white-space: pre;" direction="ltr" dominant-baseline="alphabetic">Purpose:</text><text x="0" y="76.536" font-family="Virgil, Segoe UI Emoji" font-size="36px" fill="#1e1e1e" text-anchor="start" style="white-space: pre;" direction="ltr" dominant-baseline="alphabetic">Speak out the text AI response</text><text x="0" y="121.536" font-family="Virgil, Segoe UI Emoji" font-size="36px" fill="#1e1e1e" text-anchor="start" style="white-space: pre;" direction="ltr" dominant-baseline="alphabetic">Utilizes WhisperAI for Voice Response</text></g><g stroke-linecap="round" transform="translate(1944.3968095402086 866.9768457039013) rotate(0 212.5 131.25)"><path d="M32 0 C167 4.29, 301 2.36, 393 0 C413.14 -1.33, 425.13 12.69, 425 32 C428.1 90.95, 428.63 152.3, 425 230.5 C421.53 255.12, 416.25 265.03, 393 262.5 C278.62 261.73, 170.28 262.58, 32 262.5 C8.46 264.25, -1.54 250.69, 0 230.5 C-0.06 163.08, -5.89 92.34, 0 32 C-1.02 11.69, 9.42 0.6, 32 0" stroke="none" stroke-width="0" fill="#ffc9c9"></path><path d="M32 0 C140.97 0.84, 249.63 1.29, 393 0 M32 0 C174.57 0.97, 316.96 1.7, 393 0 M393 0 C414.64 -1.11, 425.74 12, 425 32 M393 0 C412.74 1.94, 424.83 11.64, 425 32 M425 32 C426.16 100.55, 425 169.54, 425 230.5 M425 32 C426.45 84.14, 426.3 135.72, 425 230.5 M425 230.5 C426.85 250.13, 413.98 261.38, 393 262.5 M425 230.5 C426.96 252.54, 412.67 262.55, 393 262.5 M393 262.5 C296.85 263.36, 199.89 263.36, 32 262.5 M393 262.5 C306.76 263.38, 220.2 262.99, 32 262.5 M32 262.5 C10.59 263.58, -1.8 253.57, 0 230.5 M32 262.5 C11.81 264.16, 0.93 251.9, 0 230.5 M0 230.5 C-1.42 184.3, 0.45 138.51, 0 32 M0 230.5 C-0.77 154.46, -1.18 76.23, 0 32 M0 32 C1.52 8.72, 12.28 -1.45, 32 0 M0 32 C0.45 12.01, 10.22 -1.38, 32 0" stroke="#e03131" stroke-width="2" fill="none"></path></g><g transform="translate(2130.130825958666 975.7268457039013) rotate(0 26.76598358154297 22.5)"><text x="26.76598358154297" y="31.536" font-family="Virgil, Segoe UI Emoji" font-size="36px" fill="#e03131" text-anchor="middle" style="white-space: pre;" direction="ltr" dominant-baseline="alphabetic">Mic</text></g><g stroke-linecap="round"><g transform="translate(2366.896809540209 906.9768457039015) rotate(0 65 -2.650715880020016)"><path d="M0.79 1.13 C22.39 0.29, 108.39 -4.86, 129.96 -6.11 M-0.25 0.69 C21.16 0.06, 107.35 -3.94, 128.99 -4.99" stroke="#e03131" stroke-width="2" fill="none"></path></g><g transform="translate(2366.896809540209 906.9768457039015) rotate(0 65 -2.650715880020016)"><path d="M105.93 4.65 C115.52 1.25, 119.91 -1.47, 128.99 -4.99 M105.93 4.65 C110.96 1.99, 116.07 1.17, 128.99 -4.99" stroke="#e03131" stroke-width="2" fill="none"></path></g><g transform="translate(2366.896809540209 906.9768457039015) rotate(0 65 -2.650715880020016)"><path d="M105.13 -12.43 C114.84 -10.19, 119.5 -7.27, 128.99 -4.99 M105.13 -12.43 C110.35 -11.47, 115.63 -8.67, 128.99 -4.99" stroke="#e03131" stroke-width="2" fill="none"></path></g></g><mask></mask><g transform="translate(2516.896809540209 889.4768457039015) rotate(0 210.38394165039062 45)"><text x="0" y="31.536" font-family="Virgil, Segoe UI Emoji" font-size="36px" fill="#e03131" text-anchor="start" style="white-space: pre;" direction="ltr" dominant-baseline="alphabetic">Purpose:</text><text x="0" y="76.536" font-family="Virgil, Segoe UI Emoji" font-size="36px" fill="#e03131" text-anchor="start" style="white-space: pre;" direction="ltr" dominant-baseline="alphabetic">Voice command reception</text></g><g stroke-linecap="round" transform="translate(1310.738701230003 529.6484602326473) rotate(0 177.5 102.5)"><path d="M24.68 50.61 C24.68 50.61, 24.68 50.61, 24.68 50.61 M24.68 50.61 C24.68 50.61, 24.68 50.61, 24.68 50.61 M3.82 86.8 C23.5 63.78, 40.69 43.01, 52.37 30.95 M3.82 86.8 C21.91 66.64, 39.26 45.14, 52.37 30.95 M3.3 99.6 C26.73 71.35, 53.39 45.64, 69.56 23.37 M3.3 99.6 C27.54 71.72, 50.92 45.48, 69.56 23.37 M2.12 113.15 C20.39 90.98, 38.37 70.39, 85.44 17.3 M2.12 113.15 C30.31 82.11, 56.89 50.94, 85.44 17.3 M5.54 121.41 C33.27 88.3, 59.48 57.39, 101.32 11.23 M5.54 121.41 C34.83 86.84, 63.38 53.3, 101.32 11.23 M8.95 129.68 C37.84 97.16, 64.53 66.97, 114.57 8.17 M8.95 129.68 C46.45 85.57, 86.53 41.28, 114.57 8.17 M12.36 137.95 C55.88 88.96, 98.25 35.44, 127.17 5.87 M12.36 137.95 C53.97 88.78, 97.16 38.46, 127.17 5.87 M16.43 145.46 C64.51 92.85, 108.89 37.47, 139.11 4.33 M16.43 145.46 C49.08 108.87, 80.32 73.94, 139.11 4.33 M22.47 150.71 C55.25 115.78, 88.18 77.94, 151.71 2.03 M22.47 150.71 C57.82 110.65, 91.74 70.48, 151.71 2.03 M28.51 155.96 C57.54 120.53, 84.69 90.26, 163.66 0.49 M28.51 155.96 C67.03 110.1, 106.83 64.62, 163.66 0.49 M34.54 161.21 C74.56 114.59, 114.45 65.01, 173.63 1.21 M34.54 161.21 C81.37 109.42, 126.16 56.42, 173.63 1.21 M40.58 166.45 C80.92 120.35, 122.97 72.33, 184.26 1.17 M40.58 166.45 C93.61 106.36, 145.28 44.83, 184.26 1.17 M47.28 170.95 C85.77 126.93, 125 81.09, 194.23 1.89 M47.28 170.95 C87.34 123.7, 127.98 77.44, 194.23 1.89 M54.63 174.69 C94.1 131.54, 131.14 84.74, 204.21 2.61 M54.63 174.69 C95.62 127.49, 137.6 80.84, 204.21 2.61 M61.98 178.43 C109.47 126.22, 157.2 71.75, 214.84 2.58 M61.98 178.43 C102.31 132.48, 141.04 87.16, 214.84 2.58 M69.33 182.16 C116.74 127.41, 165.66 73.57, 223.5 4.81 M69.33 182.16 C102.72 143.96, 136.31 104.19, 223.5 4.81 M76.68 185.9 C123.65 133.17, 169.81 79.23, 232.82 6.28 M76.68 185.9 C137.13 114.49, 198.27 43.17, 232.82 6.28 M84.03 189.64 C137.97 129.28, 192.18 67.71, 241.48 8.51 M84.03 189.64 C132.56 134.23, 180.39 78.27, 241.48 8.51 M92.03 192.63 C146.3 129.95, 199.65 67.35, 250.8 9.99 M92.03 192.63 C133.67 144.9, 176.27 96.16, 250.8 9.99 M101.35 194.1 C159.09 129.16, 212.63 65, 259.46 12.22 M101.35 194.1 C141.27 148.83, 180.58 102.69, 259.46 12.22 M110.01 196.33 C146.01 151.63, 186.56 110.42, 268.78 13.69 M110.01 196.33 C172.72 123.95, 235.01 53.5, 268.78 13.69 M118.67 198.56 C167.69 140.03, 215.65 84.23, 276.13 17.43 M118.67 198.56 C159.27 151.74, 201.1 104.49, 276.13 17.43 M127.33 200.79 C164.41 157.67, 198.3 115.55, 282.82 21.93 M127.33 200.79 C182.25 136.65, 237.64 75.41, 282.82 21.93 M136 203.02 C174.6 158.89, 214.62 111.74, 290.17 25.66 M136 203.02 C191.42 138.84, 248.49 74.48, 290.17 25.66 M145.97 203.74 C191.35 153.57, 234.17 105.84, 297.52 29.4 M145.97 203.74 C189.99 155.7, 232.86 107.09, 297.52 29.4 M155.94 204.46 C211 142.65, 266.73 76.45, 304.87 33.14 M155.94 204.46 C197.23 155.91, 238.71 108.64, 304.87 33.14 M166.57 204.43 C219.05 142.75, 275.48 82.4, 312.22 36.88 M166.57 204.43 C220.43 141.95, 274.1 78.18, 312.22 36.88 M177.2 204.39 C225.96 146.1, 276.88 91.16, 318.26 42.13 M177.2 204.39 C224.76 149.32, 273.11 92.79, 318.26 42.13 M187.83 204.36 C237.28 145.69, 287.03 88.77, 324.3 47.38 M187.83 204.36 C240.03 146.1, 291.11 89.27, 324.3 47.38 M199.12 203.57 C228.31 169.23, 259.83 133.96, 330.33 52.63 M199.12 203.57 C249.52 145.55, 299.74 88.54, 330.33 52.63 M211.06 202.02 C238.93 170.26, 266.1 139.42, 336.37 57.88 M211.06 202.02 C246.16 161.09, 280.92 121.37, 336.37 57.88 M223.01 200.48 C261.49 156.13, 300.71 110.76, 341.75 63.88 M223.01 200.48 C251.96 166.67, 282.86 132.11, 341.75 63.88 M235.6 198.18 C274.03 154.83, 313.12 109.86, 345.17 72.15 M235.6 198.18 C261.86 167.76, 288.41 137.72, 345.17 72.15 M247.55 196.64 C281.35 156.13, 310.88 121.2, 349.24 79.66 M247.55 196.64 C274.44 164.8, 302.35 133.65, 349.24 79.66 M262.77 191.32 C284.32 168.2, 302.75 144.82, 352.65 87.93 M262.77 191.32 C287.16 163.61, 311.52 134.74, 352.65 87.93 M278.65 185.25 C306.99 153.95, 335.92 120.53, 353.44 99.21 M278.65 185.25 C295.97 166.61, 311.22 148.77, 353.44 99.21 M294.53 179.18 C306.55 165.99, 317.25 151.62, 352.26 112.76 M294.53 179.18 C315.22 156.35, 334.42 134.97, 352.26 112.76 M318.28 164.05 C324.23 159.32, 329.92 152.39, 343.21 135.37 M318.28 164.05 C325.87 155.7, 332.69 145.37, 343.21 135.37" stroke="#ffec99" stroke-width="1" fill="none"></path><path d="M159.12 0.14 C176.19 -2.37, 197.31 0.07, 215.48 2.33 C233.65 4.58, 252.44 8.22, 268.13 13.68 C283.82 19.14, 297.64 27.16, 309.63 35.09 C321.62 43.02, 332.67 51.81, 340.09 61.27 C347.51 70.73, 352.36 81.47, 354.15 91.84 C355.94 102.21, 354.81 112.93, 350.85 123.5 C346.89 134.06, 339.59 146.06, 330.39 155.22 C321.2 164.39, 309.29 171.62, 295.67 178.5 C282.06 185.37, 265.34 192.2, 248.69 196.48 C232.05 200.75, 213.95 203, 195.82 204.15 C177.7 205.31, 157.99 205.6, 139.94 203.42 C121.88 201.24, 103.38 196.7, 87.49 191.07 C71.6 185.44, 56.82 177.61, 44.59 169.64 C32.36 161.67, 21.23 152.81, 14.1 143.27 C6.96 133.72, 3.53 122.69, 1.79 112.35 C0.06 102.01, -0.09 91.5, 3.7 81.23 C7.49 70.97, 15.26 59.99, 24.53 50.78 C33.81 41.58, 45.71 33.02, 59.33 26 C72.95 18.98, 88.49 12.88, 106.23 8.66 C123.97 4.44, 155.05 1.8, 165.77 0.68 C176.5 -0.43, 170.32 0.2, 170.57 1.96 M113.95 6.19 C128.94 0.99, 149.94 -0.56, 168.34 -0.97 C186.74 -1.38, 206.81 0.63, 224.33 3.75 C241.86 6.87, 258.48 11.75, 273.5 17.74 C288.53 23.74, 302.93 31.63, 314.48 39.71 C326.02 47.79, 336.18 56.38, 342.8 66.21 C349.41 76.05, 353.12 88.37, 354.16 98.72 C355.2 109.07, 353.63 118.46, 349.05 128.32 C344.47 138.18, 336.63 148.64, 326.69 157.86 C316.74 167.09, 303.97 176.71, 289.36 183.7 C274.75 190.69, 256.03 196.51, 239.04 199.8 C222.05 203.1, 205.37 203.05, 187.4 203.45 C169.42 203.85, 149.07 204.54, 131.19 202.2 C113.31 199.86, 95.63 195.44, 80.12 189.4 C64.61 183.37, 49.76 174.27, 38.12 166.01 C26.49 157.76, 16.76 149.47, 10.3 139.87 C3.83 130.27, -0.05 119.1, -0.67 108.41 C-1.28 97.72, 1.67 85.93, 6.61 75.74 C11.54 65.55, 19.04 56.09, 28.95 47.26 C38.86 38.42, 51.79 29.62, 66.06 22.74 C80.33 15.85, 106.13 8.19, 114.56 5.93 C123 3.68, 115.81 7.59, 116.65 9.2" stroke="#1e1e1e" stroke-width="2" fill="none"></path></g><g transform="translate(1390.5952819321838 564.6700151610262) rotate(0 97.63196563720703 67.5)"><text x="97.63196563720703" y="31.536" font-family="Virgil, Segoe UI Emoji" font-size="36px" fill="#1e1e1e" text-anchor="middle" style="white-space: pre;" direction="ltr" dominant-baseline="alphabetic">Ultrasonic </text><text x="97.63196563720703" y="76.536" font-family="Virgil, Segoe UI Emoji" font-size="36px" fill="#1e1e1e" text-anchor="middle" style="white-space: pre;" direction="ltr" dominant-baseline="alphabetic">Distance </text><text x="97.63196563720703" y="121.536" font-family="Virgil, Segoe UI Emoji" font-size="36px" fill="#1e1e1e" text-anchor="middle" style="white-space: pre;" direction="ltr" dominant-baseline="alphabetic">HC-SR04 Ultrasonic Sensor</text></g><g stroke-linecap="round"><g transform="translate(1505.778593020289 711.8566177018255) rotate(0 -84.7932257164614 285.14592126541083)"><path d="M0.61 0.39 C-27.78 95.47, -140.97 475.44, -169.22 570.53 M-0.53 -0.45 C-29.14 94.23, -141.85 473.64, -169.97 568.53" stroke="#1e1e1e" stroke-width="2" fill="none"></path></g><g transform="translate(1505.778593020289 711.8566177018255) rotate(0 -84.7932257164614 285.14592126541083)"><path d="M-171.48 543.58 C-170.22 554.01, -169.88 564.41, -169.97 568.53 M-171.48 543.58 C-170.7 552.44, -170.09 560.99, -169.97 568.53" stroke="#1e1e1e" stroke-width="2" fill="none"></path></g><g transform="translate(1505.778593020289 711.8566177018255) rotate(0 -84.7932257164614 285.14592126541083)"><path d="M-155.09 548.45 C-160.28 557.04, -166.39 565.53, -169.97 568.53 M-155.09 548.45 C-160.1 555.49, -165.26 562.32, -169.97 568.53" stroke="#1e1e1e" stroke-width="2" fill="none"></path></g></g><mask></mask><g transform="translate(373.238701230003 883.6824852649554) rotate(0 475.8565368652344 65.9872406128843)"><text x="0" y="30.82923881433955" font-family="Virgil, Segoe UI Emoji" font-size="35.1931949935383px" fill="#1e1e1e" text-anchor="start" style="white-space: pre;" direction="ltr" dominant-baseline="alphabetic">onMotion:</text><text x="0" y="74.82073255626243" font-family="Virgil, Segoe UI Emoji" font-size="35.1931949935383px" fill="#1e1e1e" text-anchor="start" style="white-space: pre;" direction="ltr" dominant-baseline="alphabetic">Display Facial Random Facial Expressions</text><text x="0" y="118.8122262981853" font-family="Virgil, Segoe UI Emoji" font-size="35.1931949935383px" fill="#1e1e1e" text-anchor="start" style="white-space: pre;" direction="ltr" dominant-baseline="alphabetic">Make a welcoming Sound and express friendly readiness</text></g><g stroke-linecap="round"><g transform="translate(1367.4053678966698 692.9817935659808) rotate(0 -306.25 505)"><path d="M-0.75 0.51 C-102.98 168.67, -510.39 841.22, -612.33 1009.63 M1.06 -0.27 C-101.4 168.01, -510.83 842.74, -613.19 1010.98" stroke="#1e1e1e" stroke-width="2" fill="none"></path></g><g transform="translate(1367.4053678966698 692.9817935659808) rotate(0 -306.25 505)"><path d="M-608.3 986.46 C-609.19 996.17, -612.54 1005.55, -613.19 1010.98 M-608.3 986.46 C-610.22 995.92, -611.96 1005.63, -613.19 1010.98" stroke="#1e1e1e" stroke-width="2" fill="none"></path></g><g transform="translate(1367.4053678966698 692.9817935659808) rotate(0 -306.25 505)"><path d="M-593.68 995.34 C-600.26 1001.53, -609.25 1007.49, -613.19 1010.98 M-593.68 995.34 C-601.18 1001.5, -608.51 1007.81, -613.19 1010.98" stroke="#1e1e1e" stroke-width="2" fill="none"></path></g></g><mask></mask><g stroke-linecap="round"><g transform="translate(1615.5720345633367 678.3151268993142) rotate(0 163.75 87.5)"><path d="M0.32 -1.14 C54.79 28.05, 273.01 145.48, 327.44 174.85 M-0.97 0.87 C53.29 30.28, 271.99 147.05, 326.46 176.31" stroke="#1e1e1e" stroke-width="2" fill="none"></path></g><g transform="translate(1615.5720345633367 678.3151268993142) rotate(0 163.75 87.5)"><path d="M301.71 172.76 C308.46 173.83, 318.78 174.2, 326.46 176.31 M301.71 172.76 C309.99 173.92, 317.52 175, 326.46 176.31" stroke="#1e1e1e" stroke-width="2" fill="none"></path></g><g transform="translate(1615.5720345633367 678.3151268993142) rotate(0 163.75 87.5)"><path d="M309.78 157.68 C313.67 164.06, 321.16 169.7, 326.46 176.31 M309.78 157.68 C315.46 163.38, 320.52 169.08, 326.46 176.31" stroke="#1e1e1e" stroke-width="2" fill="none"></path></g></g><mask></mask><g stroke-linecap="round"><g transform="translate(1535.6326692335927 321.1848534575106) rotate(0 -15.238765423692712 100.84418396167331)"><path d="M-0.26 0.42 C-5.25 34.23, -25.38 169.29, -30.33 202.67 M1.8 -0.4 C-3.3 33.1, -25.82 167.41, -31.2 201.07" stroke="#1e1e1e" stroke-width="2" fill="none"></path></g><g transform="translate(1535.6326692335927 321.1848534575106) rotate(0 -15.238765423692712 100.84418396167331)"><path d="M-35.83 176.5 C-33.92 183.31, -31.75 190.51, -31.2 201.07 M-35.83 176.5 C-34.68 182.96, -33.46 188.43, -31.2 201.07" stroke="#1e1e1e" stroke-width="2" fill="none"></path></g><g transform="translate(1535.6326692335927 321.1848534575106) rotate(0 -15.238765423692712 100.84418396167331)"><path d="M-18.96 179.27 C-21.54 185.31, -23.87 191.76, -31.2 201.07 M-18.96 179.27 C-21.57 184.95, -24.1 189.8, -31.2 201.07" stroke="#1e1e1e" stroke-width="2" fill="none"></path></g></g><mask></mask><g stroke-linecap="round" transform="translate(1271.8229508657487 10) rotate(0 363.9230323635678 151)"><path d="M7.86 8.16 C7.86 8.16, 7.86 8.16, 7.86 8.16 M7.86 8.16 C7.86 8.16, 7.86 8.16, 7.86 8.16 M6.68 21.71 C10.76 15.5, 14.95 12.23, 21.12 5.11 M6.68 21.71 C10.57 16.43, 16.65 10.69, 21.12 5.11 M4.85 36.01 C14.42 26.84, 19.27 18.14, 34.37 2.05 M4.85 36.01 C14.16 25.07, 22.85 16.14, 34.37 2.05 M4.98 48.06 C21.12 30.59, 34.59 13.23, 45 2.02 M4.98 48.06 C18.55 31.3, 32.93 16.18, 45 2.02 M5.11 60.1 C22.12 40.19, 43.37 18.74, 55.63 1.98 M5.11 60.1 C21.96 38.78, 41.09 18.21, 55.63 1.98 M4.59 72.89 C19.73 54.15, 32.8 37.37, 66.26 1.95 M4.59 72.89 C29.06 45.76, 52.69 17.73, 66.26 1.95 M4.72 84.93 C28.79 57.74, 52.67 30.4, 76.89 1.91 M4.72 84.93 C30.28 57.95, 53.38 29.89, 76.89 1.91 M4.86 96.97 C30.95 68.01, 55.84 38.91, 87.52 1.88 M4.86 96.97 C29.13 67.52, 55.74 39.06, 87.52 1.88 M4.99 109.01 C23.2 88.22, 44.31 67.51, 98.15 1.85 M4.99 109.01 C33.71 75.38, 62.36 40.8, 98.15 1.85 M5.12 121.06 C36.17 88.09, 61.23 53.93, 108.78 1.81 M5.12 121.06 C33.66 89.13, 61.96 55.28, 108.78 1.81 M5.26 133.1 C38.26 98.87, 71.78 62.2, 119.41 1.78 M5.26 133.1 C32.68 103.04, 59.4 72.32, 119.41 1.78 M4.73 145.89 C49.78 95.65, 91.48 46.22, 130.04 1.74 M4.73 145.89 C31.52 114.63, 59.18 83.62, 130.04 1.74 M4.87 157.93 C38.05 119.5, 69.15 84.21, 140.67 1.71 M4.87 157.93 C40.97 116.97, 76.58 76.51, 140.67 1.71 M5 169.97 C37.53 131.77, 71.24 92.83, 150.65 2.43 M5 169.97 C35.55 133.72, 65.76 98.45, 150.65 2.43 M5.13 182.01 C63.41 114.21, 120.85 49.76, 161.28 2.39 M5.13 182.01 C35.13 145.25, 67.24 109.41, 161.28 2.39 M5.27 194.05 C62.37 126.71, 123.62 59.62, 171.91 2.36 M5.27 194.05 C47.15 145.61, 89.52 98.6, 171.91 2.36 M5.4 206.1 C74.48 127.5, 142.2 48.78, 182.54 2.32 M5.4 206.1 C60.63 143.09, 114.3 80.68, 182.54 2.32 M4.88 218.89 C52.03 162.55, 99.94 107.65, 193.17 2.29 M4.88 218.89 C59.34 157.8, 112.84 97.49, 193.17 2.29 M5.01 230.93 C83.26 143.05, 161.61 51, 203.8 2.26 M5.01 230.93 C57.68 169.67, 112.2 107.13, 203.8 2.26 M5.14 242.97 C82.19 151.97, 157.81 63.87, 214.43 2.22 M5.14 242.97 C89.53 145.63, 171.35 51, 214.43 2.22 M5.28 255.01 C75.77 173.2, 146.79 93.27, 225.06 2.19 M5.28 255.01 C56.9 197.49, 105.87 140.38, 225.06 2.19 M5.41 267.05 C61.69 201.17, 118.54 136.09, 235.69 2.15 M5.41 267.05 C53.57 210.16, 104.14 152.76, 235.69 2.15 M4.23 280.61 C73.46 201.2, 142.24 121.66, 246.32 2.12 M4.23 280.61 C85.71 186.36, 168.5 91.86, 246.32 2.12 M5.68 291.14 C94.56 188.56, 185.08 84.14, 256.95 2.08 M5.68 291.14 C82.41 201.73, 161.28 111.94, 256.95 2.08 M11.71 296.38 C75.44 223.7, 139.67 151.4, 267.58 2.05 M11.71 296.38 C69.63 231.35, 127.33 164.67, 267.58 2.05 M18.41 300.88 C89.12 221.72, 157.17 141.29, 278.21 2.01 M18.41 300.88 C118.07 185.86, 219.15 69.52, 278.21 2.01 M28.38 301.6 C117.25 197.03, 205.73 95.36, 288.84 1.98 M28.38 301.6 C115.86 199.45, 203.98 97.87, 288.84 1.98 M35.73 305.34 C102.96 227.97, 171.78 149.98, 299.47 1.94 M35.73 305.34 C113.56 214.41, 191.53 124.47, 299.47 1.94 M46.36 305.3 C138.01 201.08, 226.94 98.26, 310.1 1.91 M46.36 305.3 C145.77 191.51, 245.15 77.8, 310.1 1.91 M56.99 305.27 C138.67 209.45, 222.53 113.3, 320.73 1.88 M56.99 305.27 C116.29 237.68, 174.94 170.1, 320.73 1.88 M67.62 305.23 C121.21 244.75, 173.69 182.06, 331.36 1.84 M67.62 305.23 C136.13 226.67, 205.6 146.91, 331.36 1.84 M78.25 305.2 C172.27 200.94, 262.62 95.84, 341.99 1.81 M78.25 305.2 C157.37 212.37, 237.87 121.07, 341.99 1.81 M88.88 305.17 C170.75 212.05, 255.29 115.54, 352.62 1.77 M88.88 305.17 C190.37 187.83, 290.72 71.76, 352.62 1.77 M99.51 305.13 C193.16 197.33, 287.49 89.2, 363.25 1.74 M99.51 305.13 C153.08 244.57, 206.22 184.2, 363.25 1.74 M110.14 305.1 C179.9 225.83, 248.4 146.33, 373.88 1.7 M110.14 305.1 C201.75 200.58, 293.77 95.04, 373.88 1.7 M120.77 305.06 C186.81 228.2, 254.47 153, 383.85 2.42 M120.77 305.06 C207.29 205.36, 294.84 105.18, 383.85 2.42 M131.4 305.03 C192.69 230.92, 255.62 158.22, 394.48 2.39 M131.4 305.03 C190.27 238.08, 246.89 172.87, 394.48 2.39 M142.03 304.99 C216.08 220.19, 288.22 137.08, 405.11 2.35 M142.03 304.99 C208.65 229.59, 274.54 155.09, 405.11 2.35 M152.66 304.96 C221.75 224.95, 288.21 148.51, 415.74 2.32 M152.66 304.96 C228.89 219.34, 304.08 132.11, 415.74 2.32 M163.29 304.92 C258.44 194.2, 354.28 86.72, 426.37 2.29 M163.29 304.92 C224.81 232.65, 288 160.07, 426.37 2.29 M173.27 305.64 C262.37 205.97, 347.91 106.71, 437 2.25 M173.27 305.64 C250.71 216.87, 327.88 128.01, 437 2.25 M183.9 305.61 C275.03 202.84, 366.01 97.89, 447.63 2.22 M183.9 305.61 C273.61 201.48, 363 98.74, 447.63 2.22 M194.53 305.58 C269.38 220.53, 344.25 134.79, 458.26 2.18 M194.53 305.58 C250.73 239.69, 307.36 174.91, 458.26 2.18 M205.16 305.54 C307.27 186.01, 412.5 68.91, 468.89 2.15 M205.16 305.54 C291.59 207.7, 377.68 109.7, 468.89 2.15 M215.79 305.51 C310.19 197.13, 402.14 90.69, 479.52 2.11 M215.79 305.51 C287.67 221.66, 358.82 138.84, 479.52 2.11 M226.42 305.47 C320.65 195.19, 416.36 86.78, 490.15 2.08 M226.42 305.47 C308.6 212.89, 388.72 120.5, 490.15 2.08 M237.05 305.44 C337.47 188.84, 438.75 72.29, 500.78 2.04 M237.05 305.44 C322.98 205.85, 409.11 107.12, 500.78 2.04 M247.68 305.4 C307.55 234.33, 368.08 165.98, 511.41 2.01 M247.68 305.4 C336.45 203.36, 426.26 100.99, 511.41 2.01 M258.31 305.37 C318.08 236.93, 377.75 168.46, 522.04 1.98 M258.31 305.37 C330.42 223.4, 401.92 141.09, 522.04 1.98 M268.94 305.33 C342.75 219.8, 416.52 136.16, 532.67 1.94 M268.94 305.33 C325.75 239.44, 383.53 173.23, 532.67 1.94 M279.57 305.3 C372 200.05, 462.27 94.89, 543.3 1.91 M279.57 305.3 C347.68 226.49, 415.67 149.6, 543.3 1.91 M290.2 305.26 C369.19 215.71, 448.16 122.41, 553.93 1.87 M290.2 305.26 C365.69 219.11, 439.95 133.42, 553.93 1.87 M300.83 305.23 C355.98 241.71, 412.09 176.11, 564.56 1.84 M300.83 305.23 C368.6 228.64, 436.68 151.72, 564.56 1.84 M311.46 305.2 C364.04 243.59, 415.99 181.99, 575.19 1.8 M311.46 305.2 C366.26 242.79, 421.31 178.6, 575.19 1.8 M322.09 305.16 C406.97 209.59, 489.99 113.41, 585.82 1.77 M322.09 305.16 C400.48 214.32, 478.26 124.62, 585.82 1.77 M332.72 305.13 C435.29 187.23, 539.21 67.45, 596.45 1.73 M332.72 305.13 C388.49 240.77, 444.21 176.69, 596.45 1.73 M343.35 305.09 C433.28 205.26, 520.51 103.03, 607.08 1.7 M343.35 305.09 C404.48 234.19, 467.27 161.68, 607.08 1.7 M353.98 305.06 C457.68 187.73, 558.55 71.56, 617.06 2.42 M353.98 305.06 C419.63 227.59, 485.69 151.47, 617.06 2.42 M364.61 305.02 C464.9 187.77, 565.45 73.59, 627.69 2.38 M364.61 305.02 C466.17 188.78, 566.94 73.34, 627.69 2.38 M375.24 304.99 C433.09 237.84, 491.71 170.8, 638.32 2.35 M375.24 304.99 C434.47 235.02, 494.64 166.38, 638.32 2.35 M385.87 304.95 C478.13 199.19, 573.26 90.32, 648.95 2.32 M385.87 304.95 C458.46 219.23, 532.38 134.97, 648.95 2.32 M396.5 304.92 C459.52 232.72, 520.61 161.59, 659.58 2.28 M396.5 304.92 C495.22 189.44, 593.74 75.24, 659.58 2.28 M406.47 305.64 C509.26 191.04, 610.41 72.94, 670.21 2.25 M406.47 305.64 C487.51 210.27, 570.03 115.4, 670.21 2.25 M417.1 305.61 C488.44 222.6, 562.15 137.79, 680.84 2.21 M417.1 305.61 C489.61 220.33, 563.1 135.78, 680.84 2.21 M427.73 305.57 C531.45 185.81, 635.25 64.76, 691.47 2.18 M427.73 305.57 C507.47 214.21, 587.29 122.49, 691.47 2.18 M438.36 305.54 C519.02 213.31, 598.65 122.43, 700.79 3.65 M438.36 305.54 C506.28 227.87, 573.75 149.45, 700.79 3.65 M448.99 305.5 C531.48 209.51, 616.82 112.87, 711.42 3.62 M448.99 305.5 C533.37 207.67, 616.49 112.57, 711.42 3.62 M459.62 305.47 C557 192.44, 658.32 76.59, 718.77 7.36 M459.62 305.47 C555.32 192.44, 651.95 82.2, 718.77 7.36 M470.25 305.43 C550.71 213.02, 628.82 121.97, 724.15 13.36 M470.25 305.43 C539.32 228.5, 606.49 151.08, 724.15 13.36 M480.88 305.4 C552.22 222.74, 624.06 139.71, 728.87 20.12 M480.88 305.4 C535.83 242.51, 591.11 178.91, 728.87 20.12 M491.51 305.36 C568.88 215.94, 646.75 127.97, 728.35 32.91 M491.51 305.36 C558.9 227.26, 627.4 146.98, 728.35 32.91 M502.14 305.33 C575.77 221.52, 649.41 139.22, 728.48 44.95 M502.14 305.33 C583.88 213.09, 664.5 121.26, 728.48 44.95 M512.77 305.3 C583.8 223.01, 656.6 139.71, 728.62 57 M512.77 305.3 C594.64 207.9, 677.06 113.17, 728.62 57 M523.4 305.26 C579.04 243.22, 632.47 180.14, 728.75 69.04 M523.4 305.26 C575.91 247.67, 627.29 187.66, 728.75 69.04 M534.03 305.23 C593.37 235.16, 654.69 169.14, 728.88 81.08 M534.03 305.23 C607.62 221.27, 680.27 138.01, 728.88 81.08 M544.66 305.19 C587.56 258.3, 629.27 210.59, 728.36 93.87 M544.66 305.19 C606.18 234.08, 668.42 163.8, 728.36 93.87 M555.29 305.16 C592.84 260.91, 632.54 215.05, 728.49 105.91 M555.29 305.16 C612.08 240.21, 667.71 175.76, 728.49 105.91 M565.92 305.12 C600.64 264.4, 637.07 225.97, 728.63 117.95 M565.92 305.12 C624.95 236.09, 683.54 167.57, 728.63 117.95 M576.55 305.09 C622.73 253.37, 664.85 204.4, 728.76 130 M576.55 305.09 C631.43 243.48, 683.91 183.72, 728.76 130 M587.18 305.05 C640.23 245.26, 690.21 186.39, 728.89 142.04 M587.18 305.05 C622.91 263.95, 659.81 221.58, 728.89 142.04 M597.81 305.02 C633.66 261.63, 674.08 214.82, 728.37 154.83 M597.81 305.02 C650.4 244.09, 703.3 184.98, 728.37 154.83 M608.44 304.98 C643.64 263.83, 681.12 222.77, 728.5 166.87 M608.44 304.98 C637.03 272.16, 665.85 237.08, 728.5 166.87 M619.07 304.95 C645.15 270.12, 675.66 239.64, 728.64 178.91 M619.07 304.95 C647.71 271.06, 675.25 238.31, 728.64 178.91 M629.7 304.92 C664.89 262.28, 701.37 219.27, 728.77 190.95 M629.7 304.92 C662.28 269.22, 693.44 231.96, 728.77 190.95 M639.68 305.64 C656.29 282.99, 676.79 263.67, 728.9 203 M639.68 305.64 C671.85 268.31, 705.33 230.39, 728.9 203 M650.31 305.6 C667.93 282.84, 685.79 265.93, 728.38 215.79 M650.31 305.6 C668.45 286.18, 685.26 265.7, 728.38 215.79 M660.94 305.57 C685.33 275.89, 713.87 247.43, 728.51 227.83 M660.94 305.57 C674.14 290.81, 687.3 274.81, 728.51 227.83 M671.57 305.53 C686.01 289.1, 698.64 275.69, 728.65 239.87 M671.57 305.53 C694.93 279.44, 715.87 252.97, 728.65 239.87 M682.2 305.5 C694.13 295.66, 701.52 284.42, 728.78 251.91 M682.2 305.5 C693.94 291.67, 706.21 277.89, 728.78 251.91 M692.83 305.46 C703.19 294.76, 708.98 284.87, 728.91 263.95 M692.83 305.46 C702.81 294.42, 711.08 283.65, 728.91 263.95 M702.15 306.94 C713.78 293.83, 720.15 284.4, 731.67 272.98 M702.15 306.94 C710.95 296.11, 720.16 286.67, 731.67 272.98" stroke="#ffec99" stroke-width="1" fill="none"></path><path d="M32 0 C217.32 0.02, 400.71 0.18, 695.85 0 M32 0 C165.36 -2.15, 298.89 -2.58, 695.85 0 M695.85 0 C717.12 -1.37, 728.72 9.54, 727.85 32 M695.85 0 C716.81 1.83, 728.71 10.99, 727.85 32 M727.85 32 C727.62 102.14, 729.12 170.97, 727.85 270 M727.85 32 C726.52 116.96, 726.86 200.45, 727.85 270 M727.85 270 C725.98 289.62, 715.41 300.01, 695.85 302 M727.85 270 C725.62 290.63, 718.29 301.33, 695.85 302 M695.85 302 C505.63 300.94, 317.2 301.23, 32 302 M695.85 302 C558.48 304.01, 421.14 303.55, 32 302 M32 302 C9.88 302.01, -1 289.61, 0 270 M32 302 C12.44 303.21, 0.56 290.7, 0 270 M0 270 C-1.98 186.24, 1.18 102.46, 0 32 M0 270 C0.24 202.98, -0.88 136.06, 0 32 M0 32 C0.87 11.04, 9.77 0.98, 32 0 M0 32 C1.58 12.36, 9.53 2.01, 32 0" stroke="#1e1e1e" stroke-width="2" fill="none"></path></g><g transform="translate(1298.3004292488745 24.598493337576656) rotate(0 133.5779571533203 180)"><text x="0" y="31.536" font-family="Virgil, Segoe UI Emoji" font-size="36px" fill="#1e1e1e" text-anchor="start" style="white-space: pre;" direction="ltr" dominant-baseline="alphabetic">Pins:</text><text x="0" y="76.536" font-family="Virgil, Segoe UI Emoji" font-size="36px" fill="#1e1e1e" text-anchor="start" style="white-space: pre;" direction="ltr" dominant-baseline="alphabetic">Component = Pi</text><text x="0" y="121.536" font-family="Virgil, Segoe UI Emoji" font-size="36px" fill="#1e1e1e" text-anchor="start" style="white-space: pre;" direction="ltr" dominant-baseline="alphabetic">VCC = VBUS</text><text x="0" y="166.536" font-family="Virgil, Segoe UI Emoji" font-size="36px" fill="#1e1e1e" text-anchor="start" style="white-space: pre;" direction="ltr" dominant-baseline="alphabetic">Trig = GP0</text><text x="0" y="211.536" font-family="Virgil, Segoe UI Emoji" font-size="36px" fill="#1e1e1e" text-anchor="start" style="white-space: pre;" direction="ltr" dominant-baseline="alphabetic">Echo = GP1</text><text x="0" y="256.536" font-family="Virgil, Segoe UI Emoji" font-size="36px" fill="#1e1e1e" text-anchor="start" style="white-space: pre;" direction="ltr" dominant-baseline="alphabetic">GND = GND</text><text x="0" y="301.536" font-family="Virgil, Segoe UI Emoji" font-size="36px" fill="#1e1e1e" text-anchor="start" style="white-space: pre;" direction="ltr" dominant-baseline="alphabetic"></text><text x="0" y="346.536" font-family="Virgil, Segoe UI Emoji" font-size="36px" fill="#1e1e1e" text-anchor="start" style="white-space: pre;" direction="ltr" dominant-baseline="alphabetic"></text></g><g stroke-linecap="round" transform="translate(183.35296213987442 209.1075409436961) rotate(0 418.5112307004513 106.23950246695375)"><path d="M32 0 C287.63 -5.3, 541.44 -2.64, 805.02 0 C828.4 -0.32, 836.23 10.91, 837.02 32 C834.75 75.12, 839.27 123.25, 837.02 180.48 C836.3 198.55, 828.41 213.33, 805.02 212.48 C543.51 217.11, 281.47 217.49, 32 212.48 C11.8 209.21, -3.08 198.94, 0 180.48 C0.23 141.66, 0.43 102.47, 0 32 C0.58 10.42, 8.55 2.5, 32 0" stroke="none" stroke-width="0" fill="#ffc9c9"></path><path d="M32 0 C337.65 -0.25, 644.28 -0.85, 805.02 0 M32 0 C235.63 -2.27, 439 -1.93, 805.02 0 M805.02 0 C826.81 0.67, 837.68 9.06, 837.02 32 M805.02 0 C828.43 -1.4, 839.1 9.64, 837.02 32 M837.02 32 C837.8 78.03, 839.28 125.7, 837.02 180.48 M837.02 32 C837.17 71.82, 838.33 113.43, 837.02 180.48 M837.02 180.48 C838.89 201.18, 827.29 210.84, 805.02 212.48 M837.02 180.48 C836.9 202.34, 825.49 212.03, 805.02 212.48 M805.02 212.48 C623.2 215.23, 441.27 214.43, 32 212.48 M805.02 212.48 C596.19 212.02, 386.74 212.33, 32 212.48 M32 212.48 C12.17 212.9, 1.19 200.87, 0 180.48 M32 212.48 C9.04 210.32, 1.44 201.54, 0 180.48 M0 180.48 C0.49 123.39, 2.24 69.31, 0 32 M0 180.48 C1.17 138.96, 1.31 98.4, 0 32 M0 32 C-1.58 11.14, 10.11 -0.58, 32 0 M0 32 C0.38 10.13, 10.96 -1.59, 32 0" stroke="#e03131" stroke-width="2" fill="none"></path></g><g transform="translate(213.16852378922692 244.78391695504695) rotate(0 400.9196472167969 62.5)"><text x="0" y="17.52" font-family="Virgil, Segoe UI Emoji" font-size="20px" fill="#e03131" text-anchor="start" style="white-space: pre;" direction="ltr" dominant-baseline="alphabetic">Motion sensor Facts:</text><text x="0" y="42.519999999999996" font-family="Virgil, Segoe UI Emoji" font-size="20px" fill="#e03131" text-anchor="start" style="white-space: pre;" direction="ltr" dominant-baseline="alphabetic"></text><text x="0" y="67.52" font-family="Virgil, Segoe UI Emoji" font-size="20px" fill="#e03131" text-anchor="start" style="white-space: pre;" direction="ltr" dominant-baseline="alphabetic">The potentiometer next to the yellow pin is Sensitivity (clockwise is increasing)</text><text x="0" y="92.52" font-family="Virgil, Segoe UI Emoji" font-size="20px" fill="#e03131" text-anchor="start" style="white-space: pre;" direction="ltr" dominant-baseline="alphabetic"></text><text x="0" y="117.52" font-family="Virgil, Segoe UI Emoji" font-size="20px" fill="#e03131" text-anchor="start" style="white-space: pre;" direction="ltr" dominant-baseline="alphabetic">The potentiometer on the opposite side of the yellow pin is the time adjustment.</text></g><g transform="translate(503.14247582868404 178.1978709767668) rotate(0 254.08673095703125 56.24552172736685)"><text x="0" y="78.83372325307737" font-family="Virgil, Segoe UI Emoji" font-size="89.99283476378695px" fill="#e03131" text-anchor="start" style="white-space: pre;" direction="ltr" dominant-baseline="alphabetic">Deprecated</text></g><g stroke-linecap="round" transform="translate(10 1786.71309179642) rotate(0 259.50720288115247 167.5732558139535)"><path d="M7.86 8.16 C7.86 8.16, 7.86 8.16, 7.86 8.16 M7.86 8.16 C7.86 8.16, 7.86 8.16, 7.86 8.16 M6.68 21.71 C11.11 17.31, 16.11 10.19, 21.12 5.11 M6.68 21.71 C9.66 17.64, 14.51 13.12, 21.12 5.11 M4.85 36.01 C13.57 24.52, 24.46 15.52, 34.37 2.05 M4.85 36.01 C14.82 24.6, 23.46 14.68, 34.37 2.05 M4.98 48.06 C14.48 38.01, 23.78 26.32, 45 2.02 M4.98 48.06 C16.05 34.05, 27.68 21.24, 45 2.02 M4.46 60.85 C23.34 37.58, 46.31 13.32, 55.63 1.98 M4.46 60.85 C15.07 48.35, 26.28 36.43, 55.63 1.98 M4.59 72.89 C25.74 48.82, 46.24 26.09, 66.26 1.95 M4.59 72.89 C22.72 50.93, 40.85 31.46, 66.26 1.95 M4.72 84.93 C27.08 60.36, 47.27 35.4, 76.89 1.91 M4.72 84.93 C26.14 61.23, 45.88 38.02, 76.89 1.91 M4.86 96.97 C22.9 76.01, 38.93 59.15, 87.52 1.88 M4.86 96.97 C35.03 61.75, 64.65 28.54, 87.52 1.88 M4.99 109.01 C25.55 86.66, 46.41 61.51, 98.15 1.85 M4.99 109.01 C27.42 83.13, 51.47 57.4, 98.15 1.85 M4.47 121.81 C27.76 93.89, 52.47 64.22, 108.78 1.81 M4.47 121.81 C34.53 85.29, 67 48.46, 108.78 1.81 M4.6 133.85 C36.24 94.86, 71.28 54.64, 119.41 1.78 M4.6 133.85 C37.83 95.53, 70.87 58.01, 119.41 1.78 M4.73 145.89 C33.85 113.52, 65.51 78.66, 130.04 1.74 M4.73 145.89 C30.44 114.89, 54.27 86.48, 130.04 1.74 M4.87 157.93 C47.35 105.84, 90.37 55.34, 140.67 1.71 M4.87 157.93 C39.13 118.74, 73.9 79.93, 140.67 1.71 M5 169.97 C51.46 117.47, 95.84 64.72, 150.65 2.43 M5 169.97 C49.59 116.38, 96.04 63.7, 150.65 2.43 M4.48 182.77 C48.88 134.67, 91.01 87.4, 161.28 2.39 M4.48 182.77 C51.07 131.55, 97.87 77.48, 161.28 2.39 M4.61 194.81 C38.72 156.13, 73.89 115.2, 171.91 2.36 M4.61 194.81 C65.07 124.37, 126.49 52.61, 171.91 2.36 M4.74 206.85 C67.52 136.12, 129.04 65.68, 182.54 2.32 M4.74 206.85 C70.95 130.88, 135.71 55.2, 182.54 2.32 M4.88 218.89 C70.15 143.96, 134.41 68.13, 193.17 2.29 M4.88 218.89 C49.01 167.17, 93.06 116.35, 193.17 2.29 M5.01 230.93 C71.55 154.05, 136.78 79.86, 203.8 2.26 M5.01 230.93 C79.09 146.08, 151.76 62.43, 203.8 2.26 M4.49 243.73 C82.96 156.26, 157.9 65.84, 214.43 2.22 M4.49 243.73 C61.42 176, 121.04 108.94, 214.43 2.22 M4.62 255.77 C58.9 191.41, 114.59 128.14, 225.06 2.19 M4.62 255.77 C91.5 159.21, 175.83 61.35, 225.06 2.19 M4.75 267.81 C54.21 213.28, 101.7 154.89, 235.69 2.15 M4.75 267.81 C56.34 208.95, 106.92 149.66, 235.69 2.15 M4.89 279.85 C76.21 195.99, 149.56 112.55, 246.32 2.12 M4.89 279.85 C62.66 212.93, 120.07 145.92, 246.32 2.12 M5.02 291.89 C69.24 217.2, 131.19 145.64, 256.95 2.08 M5.02 291.89 C66.07 218.86, 128.17 147.66, 256.95 2.08 M3.18 306.2 C87.98 208.99, 172.59 110.98, 267.58 2.05 M3.18 306.2 C101.49 192.88, 198.69 80.21, 267.58 2.05 M3.32 318.24 C96.19 209.8, 190.86 102.79, 278.21 2.01 M3.32 318.24 C91.71 217.05, 178.02 117.45, 278.21 2.01 M7.39 325.75 C99.87 222.58, 191.9 116.47, 288.84 1.98 M7.39 325.75 C100.71 220.46, 192.83 114.79, 288.84 1.98 M13.42 331 C115.26 214.78, 216.84 97.03, 299.47 1.94 M13.42 331 C85.14 249.26, 155.59 167.64, 299.47 1.94 M21.43 333.98 C127.96 212.43, 235.92 88.26, 310.1 1.91 M21.43 333.98 C101.01 242.39, 181.06 150.01, 310.1 1.91 M28.78 337.72 C110.08 247.33, 188.21 156.18, 320.73 1.88 M28.78 337.72 C97.25 258.94, 165.6 180.37, 320.73 1.88 M37.44 339.95 C121.65 244.13, 204.14 148, 331.36 1.84 M37.44 339.95 C126.62 234.07, 217.71 129.66, 331.36 1.84 M48.07 339.92 C128.31 246.08, 209.96 153.71, 341.99 1.81 M48.07 339.92 C144.7 229.05, 242.1 116.19, 341.99 1.81 M58.7 339.88 C158.53 224.57, 258.04 111.11, 352.62 1.77 M58.7 339.88 C154.46 229.16, 250.36 118.78, 352.62 1.77 M69.33 339.85 C149.95 247.6, 229.6 155.92, 363.25 1.74 M69.33 339.85 C178.55 214.57, 286.77 90.7, 363.25 1.74 M79.96 339.81 C191.39 212.75, 300.79 85.99, 373.88 1.7 M79.96 339.81 C181.85 223.28, 283.89 104.96, 373.88 1.7 M90.59 339.78 C192.54 221.81, 294.91 102.43, 383.85 2.42 M90.59 339.78 C158.8 261.54, 226.56 183.51, 383.85 2.42 M101.22 339.74 C185.95 243.04, 269.68 146.57, 394.48 2.39 M101.22 339.74 C164.02 267.39, 227.48 195, 394.48 2.39 M111.85 339.71 C208.07 226.54, 306.74 114.97, 405.11 2.35 M111.85 339.71 C223.74 210.68, 336.01 80.44, 405.11 2.35 M122.48 339.68 C215.68 232.93, 310.08 123.95, 415.74 2.32 M122.48 339.68 C205.15 244.4, 286.53 149.69, 415.74 2.32 M133.11 339.64 C199.36 263.34, 267.96 185.13, 426.37 2.29 M133.11 339.64 C234.69 222.12, 337.16 104.44, 426.37 2.29 M143.74 339.61 C258.22 207.15, 374.83 74.22, 437 2.25 M143.74 339.61 C237.28 235.15, 330.25 128.32, 437 2.25 M154.37 339.57 C264.1 212.58, 375.03 84.62, 447.63 2.22 M154.37 339.57 C221.38 263.55, 286.77 188.82, 447.63 2.22 M165 339.54 C274.54 213.92, 384.56 88.48, 458.26 2.18 M165 339.54 C227.88 269.81, 289.83 198.01, 458.26 2.18 M174.98 340.26 C262.27 237.44, 351.16 136.46, 468.89 2.15 M174.98 340.26 C283.55 217.81, 390.95 94.77, 468.89 2.15 M185.61 340.22 C299.51 211.56, 410.13 82.15, 479.52 2.11 M185.61 340.22 C267.11 245.55, 348.23 153.17, 479.52 2.11 M196.24 340.19 C269.08 258.24, 340.3 176.37, 490.15 2.08 M196.24 340.19 C284.01 236.89, 372.69 134.73, 490.15 2.08 M206.87 340.15 C293.75 239.39, 384.02 136.39, 498.81 4.31 M206.87 340.15 C303.84 230.73, 400.27 119.91, 498.81 4.31 M217.5 340.12 C291.12 250.64, 367.57 163.88, 508.13 5.78 M217.5 340.12 C285.53 264.32, 352.32 186.76, 508.13 5.78 M228.13 340.08 C308.79 248.54, 388.99 155.75, 513.51 11.79 M228.13 340.08 C290.58 269.27, 352.22 198, 513.51 11.79 M238.76 340.05 C326.19 241.66, 411.73 143.92, 518.24 18.54 M238.76 340.05 C326.96 241.58, 414.8 141.14, 518.24 18.54 M249.39 340.02 C305.23 273.29, 364.7 206.54, 519.68 29.08 M249.39 340.02 C329.18 248.6, 408.9 156.21, 519.68 29.08 M260.02 339.98 C351.61 235.42, 441.66 130.96, 523.75 36.59 M260.02 339.98 C358.34 226.87, 457.21 113.21, 523.75 36.59 M270.65 339.95 C337.6 266.02, 402.27 189.89, 523.89 48.63 M270.65 339.95 C354.6 241.54, 441.38 142.86, 523.89 48.63 M281.28 339.91 C340.83 271.13, 401.96 200.7, 524.02 60.67 M281.28 339.91 C333.74 278.94, 386.06 218.46, 524.02 60.67 M291.91 339.88 C368.4 252.13, 443.42 163.2, 524.15 72.71 M291.91 339.88 C348.55 275.8, 405.5 211.43, 524.15 72.71 M302.54 339.84 C371.55 261.79, 438.59 183.07, 524.29 84.75 M302.54 339.84 C371.24 261.68, 439.13 184.2, 524.29 84.75 M313.17 339.81 C396.49 244.37, 480.49 145.5, 523.76 97.55 M313.17 339.81 C378.84 264.31, 444.45 188.66, 523.76 97.55 M323.8 339.77 C384.03 270.17, 446.72 199.94, 523.9 109.59 M323.8 339.77 C376.25 280.34, 429.29 220.07, 523.9 109.59 M334.43 339.74 C410.84 253.04, 484.81 167.82, 524.03 121.63 M334.43 339.74 C405.16 258.58, 477.55 175.15, 524.03 121.63 M345.06 339.71 C388.69 291.69, 428.56 243.89, 524.16 133.67 M345.06 339.71 C415.75 257.52, 485.58 176.65, 524.16 133.67 M355.69 339.67 C407.81 279.05, 462.14 219.57, 524.3 145.71 M355.69 339.67 C402.76 283.1, 452.32 228.44, 524.3 145.71 M366.32 339.64 C398.91 301.63, 429.69 267.93, 523.77 158.51 M366.32 339.64 C421.24 275.89, 478.67 209.65, 523.77 158.51 M376.95 339.6 C417.99 289.44, 462.53 238.55, 523.91 170.55 M376.95 339.6 C434.49 272.05, 492.26 205.65, 523.91 170.55 M387.58 339.57 C433.98 289.62, 477.49 239.94, 524.04 182.59 M387.58 339.57 C427.82 292.89, 467.59 246.19, 524.04 182.59 M398.21 339.53 C439.76 292.78, 484.1 241.37, 524.17 194.63 M398.21 339.53 C433.53 299.52, 468.79 258.25, 524.17 194.63 M408.18 340.25 C430.55 312.54, 457.27 280.01, 524.31 206.67 M408.18 340.25 C444.68 298.99, 479.26 258.08, 524.31 206.67 M418.81 340.22 C440.03 316.03, 464.65 290.38, 523.78 219.47 M418.81 340.22 C443.64 310.61, 468.77 281.37, 523.78 219.47 M429.44 340.18 C459.55 306.76, 485.52 272.24, 523.92 231.51 M429.44 340.18 C461.21 302.63, 494.23 265.45, 523.92 231.51 M440.07 340.15 C469.37 305.94, 498.67 274.78, 524.05 243.55 M440.07 340.15 C474.05 301.79, 507.67 263.9, 524.05 243.55 M450.7 340.12 C475.81 311, 501.62 284.84, 524.18 255.59 M450.7 340.12 C476.42 309.86, 503.14 278.97, 524.18 255.59 M461.33 340.08 C478.01 319.93, 496.65 299.38, 523.66 268.38 M461.33 340.08 C483.86 312.6, 508.21 286.5, 523.66 268.38 M471.96 340.05 C483.75 325.26, 495.96 308.99, 523.79 280.42 M471.96 340.05 C489.87 319.41, 506.86 299.21, 523.79 280.42 M482.59 340.01 C495.76 326.29, 509.32 309.58, 523.93 292.47 M482.59 340.01 C491.33 329.91, 499.16 320.75, 523.93 292.47 M493.22 339.98 C502.11 333.68, 507.79 323.42, 518.81 310.54 M493.22 339.98 C500.13 331.61, 507.12 324.75, 518.81 310.54" stroke="#ffec99" stroke-width="1" fill="none"></path><path d="M32 0 C164.59 0.8, 298.35 -0.1, 487.01 0 M32 0 C210.42 -0.54, 389.33 -1.39, 487.01 0 M487.01 0 C507.06 0.69, 520.89 8.71, 519.01 32 M487.01 0 C506.25 1.73, 520.54 8.49, 519.01 32 M519.01 32 C516.26 95.54, 516.66 157.58, 519.01 303.15 M519.01 32 C518.74 106.27, 519.03 180.28, 519.01 303.15 M519.01 303.15 C520.33 325.21, 508.52 334.33, 487.01 335.15 M519.01 303.15 C520.64 324.69, 508.02 336.17, 487.01 335.15 M487.01 335.15 C311.63 334.6, 137.27 334.55, 32 335.15 M487.01 335.15 C349.78 335.86, 211.96 335.61, 32 335.15 M32 335.15 C9.85 333.87, 0.7 324.38, 0 303.15 M32 335.15 C10.8 335.37, 2.09 323.38, 0 303.15 M0 303.15 C2.58 241.26, -0.02 179.39, 0 32 M0 303.15 C1.02 208.47, 0.73 114.12, 0 32 M0 32 C1.6 8.71, 10.61 1.2, 32 0 M0 32 C0.95 10.91, 12.06 -1.14, 32 0" stroke="#1e1e1e" stroke-width="2" fill="none"></path></g><g stroke-linecap="round"><g transform="translate(671 1856.6779169455144) rotate(0 -67.24279711884753 -2.5717454967136177)"><path d="M-0.57 -0.01 C-23.04 -1.14, -111.75 -5.24, -134.09 -6.21 M1.34 -1.07 C-21.33 -2.12, -112.03 -4.59, -134.84 -5.23" stroke="#1e1e1e" stroke-width="2" fill="none"></path></g><g transform="translate(671 1856.6779169455144) rotate(0 -67.24279711884753 -2.5717454967136177)"><path d="M-111.12 -13.12 C-119.75 -9.71, -130.15 -7.73, -134.84 -5.23 M-111.12 -13.12 C-116.39 -11.89, -121.66 -10.1, -134.84 -5.23" stroke="#1e1e1e" stroke-width="2" fill="none"></path></g><g transform="translate(671 1856.6779169455144) rotate(0 -67.24279711884753 -2.5717454967136177)"><path d="M-111.59 3.97 C-120.13 1.16, -130.35 -3.09, -134.84 -5.23 M-111.59 3.97 C-116.86 1.07, -122.02 -1.28, -134.84 -5.23" stroke="#1e1e1e" stroke-width="2" fill="none"></path></g></g><mask></mask><g transform="translate(36.151888662441706 1802.806561742538) rotate(0 136.85040283203125 144.84122951506185)"><text x="0" y="25.376183411038838" font-family="Virgil, Segoe UI Emoji" font-size="28.96824590301237px" fill="#1e1e1e" text-anchor="start" style="white-space: pre;" direction="ltr" dominant-baseline="alphabetic">Pins</text><text x="0" y="61.5864907898043" font-family="Virgil, Segoe UI Emoji" font-size="28.96824590301237px" fill="#1e1e1e" text-anchor="start" style="white-space: pre;" direction="ltr" dominant-baseline="alphabetic"></text><text x="0" y="97.79679816856977" font-family="Virgil, Segoe UI Emoji" font-size="28.96824590301237px" fill="#1e1e1e" text-anchor="start" style="white-space: pre;" direction="ltr" dominant-baseline="alphabetic">VIN = VBUS</text><text x="0" y="134.00710554733524" font-family="Virgil, Segoe UI Emoji" font-size="28.96824590301237px" fill="#1e1e1e" text-anchor="start" style="white-space: pre;" direction="ltr" dominant-baseline="alphabetic">GND = GND</text><text x="0" y="170.21741292610068" font-family="Virgil, Segoe UI Emoji" font-size="28.96824590301237px" fill="#1e1e1e" text-anchor="start" style="white-space: pre;" direction="ltr" dominant-baseline="alphabetic">A+ = GP22</text><text x="0" y="206.42772030486617" font-family="Virgil, Segoe UI Emoji" font-size="28.96824590301237px" fill="#1e1e1e" text-anchor="start" style="white-space: pre;" direction="ltr" dominant-baseline="alphabetic">A- = GND</text><text x="0" y="242.6380276836316" font-family="Virgil, Segoe UI Emoji" font-size="28.96824590301237px" fill="#1e1e1e" text-anchor="start" style="white-space: pre;" direction="ltr" dominant-baseline="alphabetic">+ = Speaker + wire</text><text x="0" y="278.8483350623971" font-family="Virgil, Segoe UI Emoji" font-size="28.96824590301237px" fill="#1e1e1e" text-anchor="start" style="white-space: pre;" direction="ltr" dominant-baseline="alphabetic">- = Speaker - wire</text></g><g stroke-linecap="round" transform="translate(2141.0238095238083 423.8321394154673) rotate(0 325.9999999999999 177)"><path d="M32 0 C259.49 -1.66, 484.32 -1.58, 620 0 C638.5 0.57, 652.1 7.81, 652 32 C650.62 120.35, 652.2 211.65, 652 322 C654.81 346.86, 638.89 354.66, 620 354 C459.74 351.88, 299.18 351.57, 32 354 C8.87 355.07, -1.62 340.4, 0 322 C4.34 244.57, 2.32 166.09, 0 32 C-3.57 7.53, 7.61 2.27, 32 0" stroke="none" stroke-width="0" fill="#ffc9c9"></path><path d="M32 0 C225.92 -1.49, 419.57 -1.95, 620 0 M32 0 C215.08 -1.11, 397.99 -0.72, 620 0 M620 0 C641.62 -0.14, 650.58 9.42, 652 32 M620 0 C642.76 -1.85, 651.39 9.13, 652 32 M652 32 C652.65 105.52, 653.34 176.53, 652 322 M652 32 C650.68 96.76, 650.87 160.42, 652 322 M652 322 C650.66 341.88, 641.68 353.86, 620 354 M652 322 C652.18 343.8, 643.29 351.83, 620 354 M620 354 C393.4 354.02, 168.38 353.83, 32 354 M620 354 C405.24 352.38, 191.2 351.81, 32 354 M32 354 C12.16 353.02, -0.28 344.31, 0 322 M32 354 C12.24 353.14, 0.78 341.77, 0 322 M0 322 C-1.13 212.76, 1.65 104.08, 0 32 M0 322 C-1.65 255.58, -1.87 189.35, 0 32 M0 32 C1.91 9.49, 9.93 -1.07, 32 0 M0 32 C-1.2 12.95, 8.39 -1.78, 32 0" stroke="#e03131" stroke-width="2" fill="none"></path></g><g stroke-linecap="round"><g transform="translate(2161.0238095238083 861.8321394154673) rotate(0 23 -39)"><path d="M0.41 -0.82 C8.09 -13.77, 39.2 -65.13, 46.91 -78.18 M-0.84 1.37 C6.69 -11.36, 38.59 -63.44, 46.43 -76.74" stroke="#e03131" stroke-width="2" fill="none"></path></g><g transform="translate(2161.0238095238083 861.8321394154673) rotate(0 23 -39)"><path d="M41.64 -52.21 C42.14 -59.76, 44.96 -69.26, 46.43 -76.74 M41.64 -52.21 C42.57 -57.95, 44.23 -61.6, 46.43 -76.74" stroke="#e03131" stroke-width="2" fill="none"></path></g><g transform="translate(2161.0238095238083 861.8321394154673) rotate(0 23 -39)"><path d="M26.99 -61.03 C32.85 -65.38, 41.07 -71.62, 46.43 -76.74 M26.99 -61.03 C30.86 -65.11, 35.49 -66.97, 46.43 -76.74" stroke="#e03131" stroke-width="2" fill="none"></path></g></g><mask></mask><g transform="translate(2183.0238095238083 469.8321394154673) rotate(0 139.3379669189452 135)"><text x="0" y="31.536" font-family="Virgil, Segoe UI Emoji" font-size="36px" fill="#e03131" text-anchor="start" style="white-space: pre;" direction="ltr" dominant-baseline="alphabetic">Pins:</text><text x="0" y="76.536" font-family="Virgil, Segoe UI Emoji" font-size="36px" fill="#e03131" text-anchor="start" style="white-space: pre;" direction="ltr" dominant-baseline="alphabetic">VCC = 3V3(out)</text><text x="0" y="121.536" font-family="Virgil, Segoe UI Emoji" font-size="36px" fill="#e03131" text-anchor="start" style="white-space: pre;" direction="ltr" dominant-baseline="alphabetic">GND = GND</text><text x="0" y="166.536" font-family="Virgil, Segoe UI Emoji" font-size="36px" fill="#e03131" text-anchor="start" style="white-space: pre;" direction="ltr" dominant-baseline="alphabetic">OUT = GP28</text><text x="0" y="211.536" font-family="Virgil, Segoe UI Emoji" font-size="36px" fill="#e03131" text-anchor="start" style="white-space: pre;" direction="ltr" dominant-baseline="alphabetic">Gain = GND</text><text x="0" y="256.536" font-family="Virgil, Segoe UI Emoji" font-size="36px" fill="#e03131" text-anchor="start" style="white-space: pre;" direction="ltr" dominant-baseline="alphabetic">AR = GND</text></g><g transform="translate(2864.496746608188 421.3916632249902) rotate(0 355.760986328125 78.75000000000006)"><text x="355.760986328125" y="110.37600000000009" font-family="Virgil, Segoe UI Emoji" font-size="126.00000000000011px" fill="#e03131" text-anchor="middle" style="white-space: pre;" direction="ltr" dominant-baseline="alphabetic">Deprecated</text></g></svg>
